:FULLY-SPECIFIED
:FORCE-ALL-JOINTS-BE-3DOF
:DEGREES
2242
root -0.718193 13.8226 -16.5776 911.78 -26.5964 168.639
lfemur 11.4015 -1.3553 -15.2971
ltibia 32.0215 0 0
lfoot -23.6466 36.7454 0
ltoes -43.9486 0 0
rfemur -72.2545 -23.7358 9.14354
rtibia 74.1916 0 0
rfoot -6.85962 14.2992 0
rtoes 4.19214 0 0
lowerback 9.37338 1.85996 -13.2392
upperback -3.06833 0.454532 -2.01223
thorax -8.78872 0.800881 5.19728
lowerneck 0.92131 -12.0809 -12.3655
upperneck 4.94245 -16.8109 10.2826
head 3.23103 -8.44316 4.3458
lclavicle -2.17132e-014 9.93228e-015 0
lhumerus -69.5301 -17.8674 103.947
lradius 102.042 0 0
lwrist 60.7909 0 0
lhand -11.6139 422.161 0
lfingers 7.12502 0 0
lthumb 14.429 -463.907 0
rclavicle -2.17132e-014 9.93228e-015 0
rhumerus 49.1108 -9.86386 -58.5805
rradius 16.9589 0 0
rwrist 34.6115 0 0
rhand -19.6213 -402.594 0
rfingers 7.12502 0 0
rthumb 6.70546 287.533 0
2243
root -0.724231 13.8137 -16.5982 911.835 -26.4448 168.64
lfemur 11.5362 -1.27652 -15.3317
ltibia 31.8509 0 0
lfoot -23.5966 36.7883 0
ltoes -44.1602 0 0
rfemur -72.4414 -23.6938 9.20415
rtibia 74.3477 0 0
rfoot -6.93531 14.3649 0
rtoes 4.29689 0 0
lowerback 9.22118 1.88323 -13.3051
upperback -3.06839 0.496517 -2.03286
thorax -8.7095 0.818087 5.20468
lowerneck 0.898559 -12.0947 -12.3538
upperneck 4.92808 -16.8283 10.3141
head 3.2341 -8.45031 4.35084
lclavicle -1.80122e-014 1.40958e-014 0
lhumerus -69.5126 -17.9167 103.964
lradius 102.011 0 0
lwrist 60.8131 0 0
lhand -11.5561 422.127 0
lfingers 7.12502 0 0
lthumb 14.4848 -463.234 0
rclavicle -1.80122e-014 1.40958e-014 0
rhumerus 49.1144 -9.83438 -58.6322
rradius 16.9466 0 0
rwrist 34.5802 0 0
rhand -19.6339 -402.576 0
rfingers 7.12502 0 0
rthumb 6.69328 287.55 0
2244
root -0.730268 13.8049 -16.6188 911.889 -26.3045 168.64
lfemur 11.663 -1.20251 -15.3639
ltibia 31.6872 0 0
lfoot -23.548 36.8268 0
ltoes -44.3622 0 0
rfemur -72.6193 -23.6565 9.25964
rtibia 74.498 0 0
rfoot -7.009 14.4248 0
rtoes 4.39236 0 0
lowerback 9.0789 1.90506 -13.3688
upperback -3.06888 0.5355 -2.05242
thorax -8.63597 0.834168 5.21244
lowerneck 0.877357 -12.1078 -12.3425
upperneck 4.91281 -16.8445 10.3433
head 3.23635 -8.45699 4.35547
lclavicle -1.4422e-014 1.79975e-014 0
lhumerus -69.4969 -17.9638 103.98
lradius 101.982 0 0
lwrist 60.8391 0 0
lhand -11.5075 422.074 0
lfingers 7.12502 0 0
lthumb 14.5315 -462.05 0
rclavicle -1.4422e-014 1.79975e-014 0
rhumerus 49.1181 -9.80773 -58.6776
rradius 16.9358 0 0
rwrist 34.5488 0 0
rhand -19.6454 -402.56 0
rfingers 7.12502 0 0
rthumb 6.68217 287.566 0
2245
root -0.736306 13.796 -16.6394 911.945 -26.1776 168.636
lfemur 11.7814 -1.13483 -15.3938
ltibia 31.5285 0 0
lfoot -23.5001 36.8602 0
ltoes -44.5533 0 0
rfemur -72.7881 -23.6258 9.30934
rtibia 74.6429 0 0
rfoot -7.08161 14.4782 0
rtoes 4.47786 0 0
lowerback 8.94807 1.92513 -13.4297
upperback -3.07022 0.570887 -2.07094
thorax -8.56935 0.848908 5.22037
lowerneck 0.857897 -12.1202 -12.3314
upperneck 4.8964 -16.8595 10.3696
head 3.23761 -8.46313 4.35954
lclavicle -1.09824e-014 2.15764e-014 0
lhumerus -69.4831 -18.0084 103.996
lradius 101.954 0 0
lwrist 60.8694 0 0
lhand -11.4699 421.998 0
lfingers 7.12502 0 0
lthumb 14.5678 -460.3 0
rclavicle -1.09824e-014 2.15764e-014 0
rhumerus 49.1221 -9.78497 -58.7154
rradius 16.927 0 0
rwrist 34.5176 0 0
rhand -19.6557 -402.545 0
rfingers 7.12502 0 0
rthumb 6.67218 287.58 0
2246
root -0.742343 13.7872 -16.66 912.003 -26.0661 168.628
lfemur 11.8911 -1.07507 -15.4215
ltibia 31.3727 0 0
lfoot -23.4524 36.8877 0
ltoes -44.7324 0 0
rfemur -72.9477 -23.6034 9.35257
rtibia 74.783 0 0
rfoot -7.15408 14.5243 0
rtoes 4.55266 0 0
lowerback 8.83023 1.94314 -13.4873
upperback -3.07281 0.602083 -2.08842
thorax -8.51089 0.862092 5.22828
lowerneck 0.84037 -12.1316 -12.3205
upperneck 4.87859 -16.8729 10.3923
head 3.23769 -8.46863 4.36292
lclavicle -7.73288e-015 2.47717e-014 0
lhumerus -69.4714 -18.0502 104.011
lradius 101.928 0 0
lwrist 60.9047 0 0
lhand -11.4445 421.898 0
lfingers 7.12502 0 0
lthumb 14.5923 -457.926 0
rclavicle -7.73288e-015 2.47717e-014 0
rhumerus 49.1267 -9.76719 -58.744
rradius 16.9204 0 0
rwrist 34.4868 0 0
rhand -19.6649 -402.532 0
rfingers 7.12502 0 0
rthumb 6.66334 287.593 0
2247
root -0.748381 13.7783 -16.6806 912.065 -25.9721 168.614
lfemur 11.9917 -1.02481 -15.447
ltibia 31.2181 0 0
lfoot -23.4044 36.9087 0
ltoes -44.8983 0 0
rfemur -73.098 -23.5911 9.38867
rtibia 74.9188 0 0
rfoot -7.22732 14.5624 0
rtoes 4.61605 0 0
lowerback 8.72692 1.9588 -13.5412
upperback -3.07707 0.628492 -2.10486
thorax -8.46181 0.873505 5.23598
lowerneck 0.824968 -12.142 -12.3098
upperneck 4.85914 -16.8847 10.4109
head 3.23641 -8.47341 4.36545
lclavicle -4.7132e-015 2.75226e-014 0
lhumerus -69.4622 -18.0888 104.025
lradius 101.905 0 0
lwrist 60.9455 0 0
lhand -11.433 421.772 0
lfingers 7.12502 0 0
lthumb 14.6034 -454.873 0
rclavicle -4.7132e-015 2.75226e-014 0
rhumerus 49.132 -9.75544 -58.7621
rradius 16.9164 0 0
rwrist 34.4565 0 0
rhand -19.6728 -402.521 0
rfingers 7.12502 0 0
rthumb 6.6557 287.605 0
2248
root -0.754418 13.7695 -16.7012 912.132 -25.8977 168.594
lfemur 12.0826 -0.985646 -15.4705
ltibia 31.0628 0 0
lfoot -23.3555 36.9225 0
ltoes -45.0499 0 0
rfemur -73.239 -23.5907 9.41696
rtibia 75.0507 0 0
rfoot -7.30228 14.5918 0
rtoes 4.66733 0 0
lowerback 8.63967 1.97181 -13.5908
upperback -3.0834 0.649518 -2.12027
thorax -8.42336 0.882932 5.24329
lowerneck 0.811883 -12.1514 -12.2993
upperneck 4.83781 -16.8947 10.4248
head 3.23359 -8.47738 4.36699
lclavicle -1.963e-015 2.9768e-014 0
lhumerus -69.4554 -18.124 104.039
lradius 101.883 0 0
lwrist 60.9924 0 0
lhand -11.4368 421.617 0
lfingers 7.12502 0 0
lthumb 14.5997 -451.083 0
rclavicle -1.963e-015 2.9768e-014 0
rhumerus 49.1383 -9.75081 -58.7681
rradius 16.9153 0 0
rwrist 34.427 0 0
rhand -19.6794 -402.511 0
rfingers 7.12502 0 0
rthumb 6.64932 287.614 0
